<?xml version="1.0" encoding="utf-8"?>
<!-- Generator: Adobe Illustrator 25.0.1, SVG Export Plug-In . SVG Version: 6.00 Build 0)  -->
<svg version="1.1" id="Слой_1" xmlns="http://www.w3.org/2000/svg" xmlns:xlink="http://www.w3.org/1999/xlink" x="0px" y="0px"
	 viewBox="0 0 32 32" style="enable-background:new 0 0 32 32;" xml:space="preserve">
<style type="text/css">
	.st0{fill:#FFFFFF;stroke:#F8F8F8;}
	.st1{fill:none;stroke:#F8F8F8;}
</style>
<path class="st0" d="M16.2,11.3c-0.3-0.3-1-1.3-2.4-1.6c-1.9-0.3-3.6,1.1-3.9,1.4c-0.3,0.4-1.1,1.8-1,3.4c0,0.5,0.2,1.5,2,3.4
	c1,1.1,2.6,2.7,5.1,4"/>
<path class="st0" d="M15.5,11.3c0.3-0.2,0.9-1.2,2.3-1.4c1.9-0.3,3.6,1.1,3.9,1.4c0.3,0.4,1.1,1.8,1,3.4c0,0.5-0.2,1.5-2,3.4
	c-1,1.1-2.6,2.6-5.1,3.9"/>
<path class="st1" d="M23.7,31.5H8.3c-4.3,0-7.8-3.5-7.8-7.8V8.3C0.5,4,4,0.5,8.3,0.5h15.4c4.3,0,7.8,3.5,7.8,7.8v15.4
	C31.5,28,28,31.5,23.7,31.5z"/>
</svg>
